<svg xmlns="http://www.w3.org/2000/svg" xmlns:xlink="http://www.w3.org/1999/xlink" viewBox="0 0 1239.99 933.99"><defs><style>.cls-1{stroke:#fff;stroke-miterlimit:10;stroke-width:1.63px;fill:url(#linear-gradient);}.cls-2{mask:url(#mask);}.cls-3{fill:url(#Degradado_sin_nombre_99);}.cls-4{fill:url(#Degradado_sin_nombre_99-2);}.cls-5{fill:url(#Degradado_sin_nombre_99-3);}.cls-6{fill:url(#Degradado_sin_nombre_99-4);}.cls-7{fill:url(#Degradado_sin_nombre_99-5);}.cls-8{fill:url(#Degradado_sin_nombre_99-6);}.cls-9{fill:url(#Degradado_sin_nombre_99-7);}.cls-10{fill:url(#Degradado_sin_nombre_99-8);}.cls-11{fill:url(#Degradado_sin_nombre_99-9);}.cls-12{fill:url(#Degradado_sin_nombre_99-10);}.cls-13{fill:url(#Degradado_sin_nombre_99-11);}.cls-14{fill:url(#Degradado_sin_nombre_99-12);}.cls-15{fill:url(#Degradado_sin_nombre_99-13);}.cls-16{fill:url(#Degradado_sin_nombre_99-14);}.cls-17{fill:url(#Degradado_sin_nombre_99-15);}.cls-18{fill:url(#Degradado_sin_nombre_99-16);}.cls-19{fill:url(#Degradado_sin_nombre_99-17);}.cls-20{fill:url(#Degradado_sin_nombre_99-18);}.cls-21{fill:url(#Degradado_sin_nombre_99-19);}</style><linearGradient id="linear-gradient" x1="5421.27" y1="510.28" x2="6767.96" y2="510.28" gradientTransform="matrix(1, 0, 0, -1, -5465.64, 1020.56)" gradientUnits="userSpaceOnUse"><stop offset="0" stop-color="#fff"/><stop offset="1"/></linearGradient><mask id="mask" x="-45.19" y="-30.97" width="1348.32" height="1082.51" maskUnits="userSpaceOnUse"><rect class="cls-1" x="-44.37" y="-30.16" width="1346.69" height="1080.87" transform="translate(1257.95 1020.56) rotate(180)"/></mask><linearGradient id="Degradado_sin_nombre_99" y1="491.51" x2="1239.99" y2="491.51" gradientUnits="userSpaceOnUse"><stop offset="0.15" stop-color="#ffb66c"/><stop offset="0.39" stop-color="#ff6096"/><stop offset="0.42" stop-color="#f757a0"/><stop offset="0.48" stop-color="#e03fbc"/><stop offset="0.56" stop-color="#bc18e9"/><stop offset="0.6" stop-color="#aa04ff"/><stop offset="0.65" stop-color="#9b17fe"/><stop offset="0.75" stop-color="#7349fc"/><stop offset="0.89" stop-color="#3398f9"/><stop offset="1" stop-color="#00d8f7"/></linearGradient><linearGradient id="Degradado_sin_nombre_99-2" x1="11.84" y1="482.97" x2="1231.81" y2="482.97" xlink:href="#Degradado_sin_nombre_99"/><linearGradient id="Degradado_sin_nombre_99-3" x1="23.69" y1="474.5" x2="1223.43" y2="474.5" xlink:href="#Degradado_sin_nombre_99"/><linearGradient id="Degradado_sin_nombre_99-4" x1="35.52" y1="466.08" x2="1215.21" y2="466.08" xlink:href="#Degradado_sin_nombre_99"/><linearGradient id="Degradado_sin_nombre_99-5" x1="47.35" y1="457.75" x2="1207.02" y2="457.75" xlink:href="#Degradado_sin_nombre_99"/><linearGradient id="Degradado_sin_nombre_99-6" x1="59.06" y1="449.56" x2="1198.89" y2="449.56" xlink:href="#Degradado_sin_nombre_99"/><linearGradient id="Degradado_sin_nombre_99-7" x1="70.88" y1="441.75" x2="1190.83" y2="441.75" xlink:href="#Degradado_sin_nombre_99"/><linearGradient id="Degradado_sin_nombre_99-8" x1="82.69" y1="434.28" x2="1182.81" y2="434.28" xlink:href="#Degradado_sin_nombre_99"/><linearGradient id="Degradado_sin_nombre_99-9" x1="94.42" y1="427.36" x2="1174.85" y2="427.36" xlink:href="#Degradado_sin_nombre_99"/><linearGradient id="Degradado_sin_nombre_99-10" x1="106.24" y1="421.15" x2="1167.03" y2="421.15" xlink:href="#Degradado_sin_nombre_99"/><linearGradient id="Degradado_sin_nombre_99-11" x1="118.05" y1="415.82" x2="1159.31" y2="415.82" xlink:href="#Degradado_sin_nombre_99"/><linearGradient id="Degradado_sin_nombre_99-12" x1="129.85" y1="411.54" x2="1151.64" y2="411.54" xlink:href="#Degradado_sin_nombre_99"/><linearGradient id="Degradado_sin_nombre_99-13" x1="141.64" y1="408.29" x2="1144.09" y2="408.29" xlink:href="#Degradado_sin_nombre_99"/><linearGradient id="Degradado_sin_nombre_99-14" x1="153.43" y1="406.14" x2="1136.86" y2="406.14" xlink:href="#Degradado_sin_nombre_99"/><linearGradient id="Degradado_sin_nombre_99-15" x1="165.2" y1="405.08" x2="1129.73" y2="405.08" xlink:href="#Degradado_sin_nombre_99"/><linearGradient id="Degradado_sin_nombre_99-16" x1="176.97" y1="404.95" x2="1122.96" y2="404.95" xlink:href="#Degradado_sin_nombre_99"/><linearGradient id="Degradado_sin_nombre_99-17" x1="188.73" y1="405.68" x2="1116.53" y2="405.68" xlink:href="#Degradado_sin_nombre_99"/><linearGradient id="Degradado_sin_nombre_99-18" x1="200.48" y1="407.14" x2="1110.53" y2="407.14" xlink:href="#Degradado_sin_nombre_99"/><linearGradient id="Degradado_sin_nombre_99-19" x1="212.21" y1="409.22" x2="1105.09" y2="409.22" xlink:href="#Degradado_sin_nombre_99"/></defs><g id="Layer_2" data-name="Layer 2"><g id="Layer_1-2" data-name="Layer 1"><g class="cls-2"><path class="cls-3" d="M650.37,934c-35.85,0-81.78-12.6-140.27-38.15C455.42,872,402,851.28,350.43,831.29c-79.26-30.7-154.13-59.7-212.84-93C72.51,701.3,33.2,662.48,13.86,616.06c-24-57.74-16.86-129,22-218C69.6,320.82,117.09,255,177,202.49c55.89-49,123.08-86.9,199.71-112.67C516.45,42.83,687.14,36.3,870.32,71c270.74,51.21,367.28,73.32,369.62,95.38,1.38,13-28.25,25.44-73.11,44.3C1077.61,248.16,928.28,311,868.21,448.48c-43.76,100.2-64.08,196.57-80.41,274-21.33,101.15-36.74,174.23-88.47,200.87C685.62,930.43,669.42,934,650.37,934Zm-3.14-884.2c-291,0-512.13,123.11-610.64,348.64-38.75,88.71-45.93,159.79-22,217.31C33.88,662,73.08,700.69,138,737.54c58.67,33.31,133.5,62.3,212.73,93,51.62,20,105,40.67,159.71,64.56,89.34,39,149.25,47.78,188.53,27.55,51.38-26.47,66.76-99.39,88-200.32,16.34-77.47,36.67-173.89,80.46-274.16,60.2-137.82,209.72-200.71,299.06-238.28,42.91-18,73.92-31.09,72.61-43.46-2.28-21.56-98.66-43.54-369-94.67C792.27,57,717.7,49.79,647.23,49.79Z"/><path class="cls-4" d="M655.41,918.59c-35.85,0-82.2-13-143.16-39.62-58.82-25.7-116-47.11-171.33-67.81C266.49,783.3,196.19,757,141.16,726.52c-60.92-33.74-97.8-69.54-116-112.66C2,559.3,9,491,46.55,405.12c33-75.43,80.33-140.71,140.83-194C244,161.25,311.8,122,389,94.31c73-26.14,153.38-41.54,238.77-45.77,82.4-4.08,167.25,2.32,252.2,19,262.82,50.6,348.28,75.07,351.7,100.7,2.27,17.06-33.26,34.44-82.42,58.5C1060,270.45,925,336.49,868.59,465.65c-41.14,94.18-61.68,182.69-78.18,253.8-22.1,95.28-38.08,164.12-87.58,189C689.41,915.18,673.79,918.59,655.41,918.59ZM512.59,878.2c91.95,40.16,150.5,49.26,189.86,29.49C751.6,883,767.54,814.32,789.6,719.26c16.5-71.15,37-159.69,78.22-253.94C924.36,335.87,1059.5,269.75,1148.92,226c48.85-23.9,84.15-41.18,82-57.64-1.74-13-26.44-25.63-80.11-40.87-52.67-14.95-136.23-33.18-270.92-59.12C588.71,11.16,196,65.12,47.31,405.46,9.89,491.13,2.88,559.19,25.88,613.54c18.18,42.93,54.94,78.6,115.69,112.24,55,30.44,125.25,56.75,199.65,84.6C396.54,831.08,453.74,852.49,512.59,878.2Z"/><path class="cls-5" d="M661.52,903.2c-36.26,0-83.82-13.46-147.12-41.11C451.82,834.76,391.19,813,332.56,791.88c-69.85-25.11-135.83-48.83-187.36-76.55-57-30.66-91.6-63.55-108.82-103.51C14.21,560.36,21,495.05,57.25,412.14a544.37,544.37,0,0,1,100.2-152.95A553.32,553.32,0,0,0,58,412.48c-36.12,82.68-42.94,147.77-20.87,199C54.31,651.25,88.77,684,145.61,714.57,197.08,742.26,263,766,332.85,791.07c58.65,21.08,119.29,42.89,181.9,70.24C608.43,902.22,667.51,912,706.34,893c46.95-22.94,63.48-87.69,86.36-177.31,16.54-64.82,37.14-145.49,75.47-233.25,23.54-53.89,62.69-102,119.68-147.17,48.59-38.48,101.76-68,144.48-91.66,54.17-30,93.31-51.75,90.05-72.67-4.6-29.59-94.81-58.32-332.85-106-138-27.63-294.36-25.15-436.93,16.9C588.69,41,741.81,34.54,889.7,64.15c123,24.63,204.21,43.79,255.67,60.31,50.73,16.29,75.47,31,77.86,46.39,3.35,21.51-36,43.34-90.48,73.55C1048.85,290.93,922.06,361.25,869,482.82c-38.31,87.7-58.89,168.33-75.43,233.12C770.6,805.78,754,870.7,706.71,893.82,694,900,679.07,903.2,661.52,903.2Z"/><path class="cls-6" d="M668,888.25a185.38,185.38,0,0,1-31.47-2.94c-31.43-5.43-70.69-18.54-120-40.09-66-28.82-132.56-51.65-191.3-71.79-65.5-22.46-127.37-43.67-175.61-68.74-53.33-27.72-85.73-57.83-102-94.78C26.39,561.52,33,499.12,68,419.16c31.32-71.71,78.47-135.83,140.14-190.58C266,177.2,335.09,135.28,413.57,104,489.11,73.87,570,54.82,654.09,47.38,737.9,40,820.44,44.46,899.39,60.76c114,23.51,190.3,42.8,240.31,60.69,48.18,17.23,72.06,33.34,75.16,50.7,4.71,26.39-38.3,53.18-97.83,90.25-83.43,52-197.7,123.13-247.69,237.59-35.23,80.65-55.64,153.37-72,211.8-12,42.81-22.39,79.79-35.25,108.22-13.9,30.72-30.1,49.65-51,59.56C698.83,885.36,684.61,888.25,668,888.25ZM516.91,844.41c49.26,21.52,88.45,34.61,119.81,40,30.58,5.28,54.77,3.42,74-5.67,44.82-21.25,61.11-79.32,85.78-167.22,16.4-58.46,36.82-131.21,72.07-211.91,50.1-114.71,164.5-186,248-238,59.24-36.89,102-63.55,97.43-89.35-3-17-26.74-32.9-74.59-50-50-17.88-126.29-37.15-240.19-60.66-304-62.73-697.7,54-830.45,357.89-34.82,79.72-41.46,141.89-20.28,190,35.23,80.11,142,116.7,277.07,163C384.3,792.74,450.89,815.57,516.91,844.41Z"/><path class="cls-7" d="M675.61,873.67c-36.74,0-86.71-14.66-156.9-45.32C449.66,798.19,380.22,775.67,319,755.8,192.34,714.74,92.34,682.31,59,608.14c-20.42-45.39-14-104.92,19.67-182C138,290.38,261.27,177.63,425.85,108.69,581,43.7,757.12,25,909.08,57.36c104,22.14,177.52,42,224.89,60.77,45.61,18.05,68.65,35.39,72.49,54.55,6.36,31.68-42.53,65.54-104.43,108.41-82.53,57.16-185.24,128.3-232.32,236.07C837.89,590,818,654.73,802,706.73c-25.82,83.86-42.87,139.25-86,159C704.54,871,691.28,873.67,675.61,873.67ZM757.81,43C489.39,43,188.56,176.8,79.48,426.54c-33.55,76.8-40,136.08-19.67,181.23C93,681.57,192.84,714,319.23,754.94c61.29,19.87,130.76,42.4,199.84,72.58,70.08,30.61,119.93,45.25,156.52,45.25,15.54,0,28.68-2.64,40-7.82,42.77-19.62,59.78-74.86,85.53-158.48,16-52,35.95-116.77,67.79-189.68,20.94-47.94,54.92-93,103.87-137.85,42.2-38.64,88.19-70.49,128.77-98.6,61.62-42.67,110.29-76.38,104-107.49-7.55-37.65-96.28-71.92-296.67-114.6C860.87,48,809.93,43,757.81,43Z"/><path class="cls-8" d="M683.88,859.71c-36.77,0-87.89-15.42-163-48.24C449.09,780.12,377.1,758.26,313.58,739,195.22,703,101.73,674.66,70.3,606.5c-9.7-21-13.07-44.77-10.3-72.58,2.91-29.23,12.51-62.18,29.35-100.73C119,365.21,166,302.21,228.81,246c59.2-53,129.63-97.61,209.32-132.57C515,79.65,598.79,56.32,680.41,45.9,765.14,35.09,845.34,37.8,918.78,54c95.83,21.09,164.33,40.89,209.43,60.51,42.44,18.48,65.28,37.41,69.81,57.88,8.29,37.4-44.07,77.42-110.35,128.09-77.2,59-173.28,132.45-217.58,233.88-28,64.13-47,120.65-62.33,166.07C780.62,781,762.69,834.28,721.45,852.56,710.79,857.28,698.46,859.71,683.88,859.71ZM521.23,810.62c104.65,45.71,162.55,57.62,199.84,41.09,40.87-18.11,58.75-71.22,85.81-151.62,15.29-45.43,34.33-102,62.36-166.14,44.4-101.65,140.58-175.17,217.87-234.25,66-50.47,118.16-90.33,110-127.15-4.47-20.16-27.13-38.88-69.29-57.23-45-19.6-113.48-39.37-209.25-60.45C633.07-8,218.15,140.64,90.2,433.56,57.92,507.47,51.68,563.91,71.14,606.11c31.26,67.78,124.57,96.11,242.71,132C377.39,757.38,449.41,779.25,521.23,810.62Z"/><path class="cls-9" d="M692.85,846.57c-36.34,0-88-16.22-169.83-52-74.2-32.41-148.44-53.25-213.94-71.64-110.55-31-197.86-55.55-227.45-118-9.3-19.63-12.52-42-9.84-68.42,2.82-27.75,12.06-59.27,28.26-96.36,28.88-66.12,75.69-128.56,139.12-185.58,59-53.07,132.08-100.29,211.24-136.57,78.05-35.77,162.13-61,243.16-72.92,85-12.53,164.08-10.7,234.9,5.43,169.76,38.66,250.28,75.83,261.08,120.51,10.51,43.51-45.18,90.22-115.69,149.36-72.06,60.45-161.73,135.67-203.4,231.05-23.67,54.19-41.2,102.13-55.29,140.65-29.89,81.69-47.93,131-87.49,147.92C717.66,844.34,706.31,846.57,692.85,846.57ZM523.4,793.73c111.86,48.86,167.13,61.18,203.9,45.46,39.19-16.76,57.17-65.93,87-147.38,14.1-38.53,31.64-86.48,55.32-140.7,41.75-95.59,131.53-170.89,203.66-231.39,70.25-58.93,125.74-105.48,115.37-148.41-5.2-21.52-27-41.14-66.58-60-42.55-20.25-105.93-39.82-193.78-59.83C788,19.56,614,44.14,450.81,118.92,284.44,195.16,156.92,312.4,100.92,440.59c-31,71.05-37.06,124.69-18.43,164,29.4,62,116.53,86.49,226.85,117.46C374.87,740.44,449.14,761.29,523.4,793.73Z"/><path class="cls-10" d="M702.77,834.23c-39.73,0-95.29-20.55-177.6-56.5-76.32-33.34-152.53-52.81-219.76-70C202.26,681.38,120.8,660.56,93,603.6c-8.91-18.24-12-39.28-9.39-64.32,2.72-26.31,11.61-56.42,27.17-92.06C138.82,383,185.51,321.09,249.53,263.3c59.69-53.88,133.4-102.5,213.16-140.58,79.2-37.82,163.59-64.91,244-78.36C792,30.11,869.89,31.05,938.16,47.17c80.18,18.93,138.6,38.19,178.57,58.89,37.3,19.31,58.32,39.82,64.29,62.72s-2.93,48.37-28.07,80c-22.62,28.43-56.52,59.49-92.41,92.37C990,405.79,910,479.08,870.84,568.66c-18.67,42.74-33.22,79.7-46.06,112.31-32.32,82.13-51.84,131.7-90.07,147.5C725.31,832.36,714.76,834.23,702.77,834.23ZM822.4,35.58c-111.63,0-238.9,30.53-359.29,88-168.57,80.5-296.68,198.59-351.46,324C81.44,516.77,75.78,566.2,93.84,603.17c27.63,56.56,108.91,77.33,211.81,103.62,67.27,17.19,143.52,36.68,219.91,70,106.91,46.7,168.55,67.37,208.78,50.74,37.85-15.65,57.3-65.07,89.54-147C836.72,648,851.27,611,869.94,568.27c39.21-89.77,119.29-163.14,190-227.87,35.86-32.85,69.73-63.89,92.3-92.26,24.93-31.34,33.79-56.48,27.89-79.12-12.08-46.34-89-84.76-242.14-120.9C902.29,39.7,863.4,35.58,822.4,35.58Z"/><path class="cls-11" d="M714,823.09c-39.1,0-95.24-22.28-186.72-62.24C449.16,726.72,371.25,709,302.51,693.31c-96.13-21.9-172.06-39.2-198.2-91-17.39-34.45-11.94-81.5,17.14-148.09C148.71,391.85,195.28,330.52,259.89,272,320.25,217.25,394.63,167.25,475,127.36S640,58.5,719.89,43.56c85.49-16,162.19-15.91,228,.21,139.65,34.24,211,72.87,224.59,121.58,15.86,56.89-49.32,121.88-124.79,197.14-65.51,65.32-139.77,139.36-176.45,223.34-12.84,29.39-23.92,56-33.7,79.4C800.45,754.06,780,803,742.62,818A75.55,75.55,0,0,1,714,823.09ZM841.34,32.86c-110.77,0-240.64,33.19-365.92,95.39-168.3,83.56-300.28,205.57-353,326.39C93.41,520.93,88,567.72,105.2,601.88c25.93,51.36,101.66,68.61,197.53,90.45,68.78,15.67,146.75,33.43,225,67.61C619.09,799.85,675.13,822.09,714,822.1a74.77,74.77,0,0,0,28.24-5c37-14.87,57.39-63.67,94.34-152.25,9.78-23.44,20.87-50,33.71-79.41C907.06,501.28,981.38,427.17,1047,361.78c75.25-75,140.24-139.83,124.54-196.16-6.53-23.42-26.44-44.19-60.87-63.5-37.15-20.83-90.47-39.6-163-57.38C915.08,36.76,879.33,32.86,841.34,32.86Z"/><path class="cls-12" d="M725.77,813.48c-37.44,0-90.41-23.17-178.41-61.68L529.47,744c-79.71-34.82-159.09-50.49-229.12-64.32C210.85,662,140.17,648,115.64,601.17c-16.58-31.7-11.33-76.15,16.51-139.91,26.07-59.68,73.83-122.14,138.1-180.64,61-55.55,136.08-107,217-148.64C568.71,90,653.7,59.15,733.05,42.73,818.68,25,894.21,24.22,957.55,40.38,1022.79,57,1071.22,75.22,1105.62,96c32,19.37,51.07,40.53,58.22,64.71,19,64.1-49.46,138.14-128.69,223.87C974.56,450.15,905.9,524.45,871.59,603c-6,13.78-11.59,26.65-17,39.09C810.77,743.4,788.77,794.24,751.36,809A68.92,68.92,0,0,1,725.77,813.48ZM859.34,30.06c-109.56,0-241.67,35.88-371.61,102.82C317.22,220.73,184.65,343.64,133.09,461.67c-27.72,63.45-33,107.63-16.54,139,24.29,46.44,94.77,60.35,184,78,70.09,13.84,149.52,29.52,229.34,64.39l17.89,7.82c87.9,38.46,140.78,61.59,178,61.6A67.9,67.9,0,0,0,751,808c37-14.57,59-65.29,102.69-166.33,5.38-12.45,11-25.32,17-39.1C905,523.89,973.76,449.52,1034.4,383.91c79-85.5,147.26-159.34,128.47-222.89-7.08-23.92-26-44.9-57.77-64.13C1070.78,76.14,1022.44,58,957.3,41.37,927.53,33.77,894.6,30.06,859.34,30.06Z"/><path class="cls-13" d="M737.87,805.69c-31.67,0-73.85-19.07-139.44-48.75-19.71-8.91-42-19-66.8-29.83-81-35.39-161.63-48.62-232.75-60.3-83.21-13.66-148.94-24.45-171.9-66.67-15.79-29-10.74-70.92,15.88-131.86,25.26-57.84,72.9-119.74,137.76-179,61.71-56.39,137.41-109.2,218.93-152.7,82.55-44,167.85-76.8,246.67-94.69,85.72-19.46,160.08-21.1,221-4.89,111,29.52,172.46,68.08,188,117.86,10.2,32.72,1.44,70.16-27.57,117.85-25.76,42.37-64.11,87.28-104.7,134.84-58.5,68.53-119,139.39-151,212.63-50.5,115.62-74.38,167.33-111.42,181.57A62.38,62.38,0,0,1,737.87,805.69ZM878.21,27.38c-255.37,0-637.21,218.8-734.4,441.31-26.48,60.62-31.54,102.23-15.92,131,22.72,41.77,88.23,52.53,171.16,66.14,71.18,11.69,151.86,24.93,233,60.37C556.8,737,579.15,747.07,598.86,756c82.28,37.22,127.6,57.73,161.31,44.76,36.64-14.08,60.46-65.67,110.84-181,32-73.39,92.59-144.31,151.14-212.9,40.57-47.52,78.89-92.41,104.61-134.7,28.84-47.41,37.56-84.59,27.46-117C1138.83,105.73,1077.58,67.41,967,38,939.89,30.78,910,27.38,878.21,27.38Z"/><path class="cls-14" d="M749.57,800.1c-27.44,0-61.64-16.68-114.83-42.64-28.65-14-61.12-29.82-101-47.23-82-35.84-167.25-46.73-235.71-55.48-77.28-9.88-138.31-17.69-159.77-55.53-15-26.42-10.13-65.79,15.26-123.93C202,364.4,339.28,236.35,511.84,141.12,595.49,95,681.09,60.32,759.39,41c85.78-21.2,159-23.68,217.56-7.38,98,27.27,153.52,64.57,169.67,114,25.87,79.3-52.57,178.61-135.62,283.75-53.56,67.8-109,137.91-138.66,205.94-43.74,100.14-69,146.91-102.68,159.31A57.35,57.35,0,0,1,749.57,800.1ZM892.93,24.23C786.66,24.23,651,65.54,512.35,142.05,340,237.17,202.88,365,154.53,475.72c-25.24,57.8-30.11,96.87-15.31,123,21.2,37.38,82,45.16,159,55,68.53,8.76,153.82,19.67,236,55.57,39.86,17.41,72.34,33.26,101,47.24C701.86,789,738.58,806.94,769.3,795.64c33.36-12.27,58.45-58.89,102.06-158.74,29.77-68.15,85.2-138.32,138.8-206.17C1093,325.82,1171.3,226.73,1145.6,148c-16-49.11-71.29-86.19-168.94-113.36C951.6,27.64,923.48,24.23,892.93,24.23Z"/><path class="cls-15" d="M761.32,796.64c-25.56,0-56-16.55-100.77-41-32.58-17.74-73.13-39.83-124.62-62.32-82.84-36.18-168.9-43.78-238-49.88-71.66-6.33-128.26-11.32-148.28-45.06-14.17-23.88-9.51-60.78,14.66-116.11,23.66-54.16,71.06-114.95,137.09-175.8,63.09-58.14,140.13-113.77,222.79-160.88C608.88,97.33,694.79,60.81,772.57,40c85.81-22.93,157.83-26.24,214.07-9.83,85.48,25,135,60.57,151.44,108.92,13.29,39.11,4.57,87.54-26.66,148-27.84,53.93-70.73,112.51-112.2,169.17-48.69,66.52-99,135.31-126.51,198.18-40.6,93-65.26,129.42-94.23,139.35A52.31,52.31,0,0,1,761.32,796.64ZM908.69,21.21c-104.28,0-241.32,44-384,125.36-174.59,99.5-312.31,228.31-359.42,336.18-24,55-28.7,91.56-14.72,115.12,19.73,33.25,76.08,38.23,147.43,44.52,69.24,6.11,155.4,13.72,238.4,50,51.53,22.51,92.1,44.61,124.7,62.36,44.67,24.34,75,40.83,100.26,40.83a51.07,51.07,0,0,0,16.79-2.73c28.64-9.81,53.13-46.12,93.6-138.76,27.51-63,77.89-131.81,126.62-198.38,41.45-56.62,84.31-115.18,112.11-169,31.09-60.23,39.79-108.37,26.6-147.19-16.3-48-65.6-83.39-150.71-108.23C963.28,24.51,937.2,21.21,908.69,21.21Z"/><path class="cls-16" d="M772.52,795.45c-24.94,0-53.54-17.74-93.45-42.51-36.06-22.37-80.92-50.22-141-76.45C454.7,640.07,368,636.15,298.28,633c-66.36-3-118.78-5.36-137.38-35.24C147.54,576.32,152,541.86,175,489.33,197.82,437,245.11,376.76,311.72,315.1c63.8-59,141.51-116.1,224.74-165C622.28,99.64,708.49,61.23,785.77,39,871.58,14.34,942.43,10.23,996.34,26.8c37.5,11.52,67.81,26.31,90.08,44,20.9,16.57,35.46,36.25,43.28,58.49C1163,224.1,1073.81,355.5,987.51,482.58,941.63,550.14,898.3,614,873.09,671.67c-34.49,79-58.66,113.06-86.21,121.64A48.14,48.14,0,0,1,772.52,795.45ZM923.84,18.13C821.75,18.13,683.56,64.91,537,151,362.87,253.39,221.15,386.36,176,489.77c-22.79,52.17-27.28,86.3-14.14,107.4,18.3,29.39,70.45,31.74,136.49,34.72C368.11,635,455,639,538.53,675.47c60.14,26.27,105,54.13,141.12,76.52,47.52,29.49,78.91,49,106.9,40.26,26.85-8.36,51.62-43.42,85.52-121,25.25-57.8,68.61-121.66,114.52-189.26,86.15-126.85,175.22-258,142.06-352.33-16.18-46-59.57-79.32-132.64-101.77C974.76,21.33,950.53,18.13,923.84,18.13Z"/><path class="cls-17" d="M782.73,796.5c-24.75,0-51.88-19.32-90.16-46.58-38.45-27.38-86.3-61.46-152.33-90.31-83.7-36.55-170.92-36.39-241-36.28-61.36.11-109.83.2-127.08-26.1-12.51-19.09-8.22-51.15,13.5-100.89,22.05-50.48,69.24-110.19,136.44-172.67,64.52-60,142.91-118.48,226.69-169.2C635.7,101.86,722.21,61.56,799,37.93,884.77,11.52,954.44,6.64,1006,23.4c31.55,10.25,57.35,23.73,76.69,40.05,18.21,15.37,31.28,33.78,38.85,54.7,16.56,45.79,8,105.56-26.32,182.74-30.17,67.94-75.59,140-119.51,209.62-40.82,64.72-79.37,125.85-102.29,178.32-29.35,67.2-52.86,98.91-78.61,106A45.44,45.44,0,0,1,782.73,796.5ZM311.82,622.19c67.89,0,149.9,1.89,228.87,36.38,66.14,28.9,114,63,152.54,90.43,44.34,31.58,73.64,52.44,101.32,44.77,25.39-7,48.68-38.54,77.87-105.39,23-52.55,61.53-113.72,102.37-178.48,43.9-69.62,89.29-141.6,119.43-209.47,34.15-76.9,42.75-136.4,26.3-181.89-15.65-43.27-53.21-74-114.83-94.06-97.79-31.77-268.37,17.18-456.31,131-83.72,50.68-162,109.14-226.5,169.06-67.1,62.37-114.19,122-136.18,172.3-21.56,49.35-25.88,81.07-13.59,99.81,16.91,25.79,65.11,25.7,126.13,25.59Z"/><path class="cls-18" d="M792.61,799.49c-25.55,0-53.24-22.59-90-52.55-40.24-32.82-90.33-73.66-160.24-104.2-83.78-36.59-171.32-32-241.66-28.26-56.65,3-101.4,5.35-117.32-17.63-11.67-16.84-7.55-46.55,13-93.49,21.25-48.65,68.33-107.83,136.14-171.15C396.82,272.15,478,210.55,561.16,158.76c88-54.81,174.81-97,251.08-122C898,8.61,966.45,3,1015.74,20c50.5,17.44,83.51,46.34,98.13,85.88,18.05,48.85,9.26,115-26.88,202.14-31.57,76.15-78.19,155.7-123.28,232.63C928.07,601.49,894.39,659,873.84,706c-25.35,58-47.39,86.51-71.46,92.33A41.49,41.49,0,0,1,792.61,799.49ZM372.69,610.86c54,0,112.94,5.83,170.16,30.82,70.06,30.6,120.21,71.5,160.51,104.37,36.56,29.81,64.12,52.28,89.26,52.28a40,40,0,0,0,9.49-1.12c23.69-5.73,45.48-34,70.67-91.67,20.58-47.12,54.27-104.6,89.94-165.46,45.06-76.9,91.66-156.41,123.21-232.49,36-86.89,44.8-152.73,26.85-201.3-14.49-39.2-47.26-67.86-97.42-85.19C922.31-11,752.74,40.78,561.78,159.74,385.88,269.31,239.46,407.59,197.42,503.82c-20.33,46.54-24.48,75.89-13.06,92.38,15.55,22.44,60,20.1,116.31,17.12C323.14,612.14,347.38,610.86,372.69,610.86Z"/><path class="cls-19" d="M801.49,804.31c-26.27,0-54.06-25.75-91.2-60.17-41.7-38.66-93.61-86.76-165.75-118.27-83.63-36.53-175.06-26.64-241.82-19.42-54.26,5.87-93.46,10.11-108.09-9.81-10.8-14.71-6.85-42.12,12.43-86.26,20.45-46.82,67.43-105.49,135.85-169.69,65.07-61,147-124.17,230.67-177.76,89.08-57,176.21-101.14,252-127.52C911.23,5.57,978.48-.75,1025.44,16.61c40.68,15.05,68,40.63,81.31,76,43.5,116-66.93,318.56-155.66,481.3-30.26,55.51-58.85,107.95-76.88,149.22-21.9,50.15-42.47,75.67-64.72,80.32A39.36,39.36,0,0,1,801.49,804.31ZM402.86,598.37c46,0,95.28,5.94,142.15,26.42,72.33,31.59,124.31,79.77,166.08,118.48,40.67,37.69,70.06,64.93,98.16,59.06,21.84-4.56,42.14-29.86,63.88-79.63,18-41.32,46.65-93.78,76.93-149.31C1038.67,410.85,1149,208.57,1105.64,93.06,1092.49,58,1065.37,32.64,1025,17.72c-88.32-32.66-256.85,22-450.82,146.21-83.62,53.54-165.48,116.62-230.5,177.63-68.31,64.08-115.19,122.62-135.58,169.29-19.09,43.72-23.08,70.76-12.55,85.09,14.22,19.38,55.17,14.95,107,9.34C332.13,602.08,366.48,598.37,402.86,598.37Z"/><path class="cls-20" d="M810,810.67c-27.42,0-57-30.82-93.7-69.14-43-44.82-96.46-100.6-169.57-132.54-83.27-36.37-174.72-21-241.5-9.73-49.92,8.41-86,14.48-99.36-2.65-9.91-12.7-6.12-37.87,11.93-79.21,19.65-45,66.54-103.18,135.59-168.28C419.22,287,501.87,222.32,586.09,166.93,676.27,107.62,763.71,61.61,839,33.89,924.54,2.36,990.54-4.6,1035.15,13.22c31.74,12.68,53.72,34.71,65.3,65.46,45.9,121.79-74.93,359.65-163.15,533.32-25.49,50.19-47.51,93.54-62.71,128.34-19.19,43.93-37.75,66.11-58.41,69.79A36.12,36.12,0,0,1,810,810.67ZM547.18,607.89c73.32,32,126.9,87.91,169.94,132.81,39.28,41,70.3,73.34,98.85,68.24,20.23-3.6,38.5-25.55,57.52-69.08,15.21-34.83,37.24-78.19,62.74-128.4C1024.35,438,1145,200.4,1099.33,79.1c-11.47-30.42-33.21-52.21-64.62-64.76-83.54-33.37-251,24.05-448,153.6C409.11,284.78,257.83,428.68,218.87,517.88c-17.87,40.89-21.71,65.68-12.09,78,12.93,16.56,50.57,10.23,98.21,2.21C371.92,586.81,463.58,571.38,547.18,607.89Z"/><path class="cls-21" d="M817.52,818.44c-28.26,0-58.63-35.29-96.53-79.32-44.13-51.27-99.06-115.08-172.14-147-82.69-36.12-174-14.78-240.74.81-45.84,10.71-79,18.45-91.1,3.86-9-10.83-5.38-33.83,11.46-72.38,18.85-43.16,65.66-100.89,135.38-167C430.55,294.24,514,227.91,598.72,170.69,690,109,777.8,61.11,852.51,32.09,938-1.1,1002.68-8.59,1044.86,9.83c23.82,10.41,40.78,28.75,50.42,54.5,11.13,29.77,12.8,70.43,5,120.86-6.75,43.47-20.82,95.76-41.83,155.4C1019.78,450.32,965.1,565.49,921.17,658,902.69,697,886.72,730.59,875,757.51c-16.79,38.45-33.48,57.69-52.5,60.56A32.57,32.57,0,0,1,817.52,818.44ZM549.34,591c73.34,32,128.36,96,172.58,147.33,39.87,46.31,71.36,82.9,100.36,78.53,18.31-2.76,35.18-22.33,51.56-59.84,11.77-26.94,27.74-60.57,46.22-99.51C964,565,1018.65,449.86,1057.28,340.19c21-59.58,35-111.79,41.77-155.19,7.79-50.22,6.14-90.67-4.92-120.24-9.51-25.43-26.25-43.54-49.76-53.8C1002.5-7.33,938.1.16,853,33.23c-74.64,29-162.31,76.87-253.56,138.47-84.7,57.19-168.06,123.47-234.71,186.64-69.6,66-116.32,123.55-135.1,166.56C213,563,209.26,585.57,218,596c11.66,14,44.47,6.34,89.88-4.27C374.7,576.11,466.27,554.72,549.34,591Z"/></g></g></g></svg>