<svg width="987" height="961" viewBox="0 0 987 961" fill="none" xmlns="http://www.w3.org/2000/svg">
<g opacity="0.3" clip-path="url(#clip0_18_124)">
<path d="M130.186 347.293C145.527 336.225 164.898 326.967 189.036 319.03C227.675 306.343 275.337 298.151 325.797 289.473C358.649 283.834 392.646 277.982 427.783 270.403C462.92 262.823 496.282 254.127 528.547 245.72C578.092 232.812 624.889 220.62 665.332 216.244C710.157 211.392 743.07 216.547 768.897 232.444C784.746 242.196 797.711 255.818 808.568 274.117C819.985 293.38 828.661 317.154 835.105 346.812C846.054 397.246 846.795 448.304 837.347 498.551C818.881 596.295 763.132 682.959 681.889 740.215C640.099 769.619 593.373 790.05 542.987 800.924C492.602 811.798 441.581 812.467 391.338 802.918C293.619 784.278 206.912 728.356 149.552 646.976C120.096 605.116 99.5982 558.33 88.6467 507.898C82.2093 478.243 80.2454 453.015 82.6545 430.778C84.9393 409.65 91.0939 391.891 101.476 376.476C108.86 365.508 118.31 355.862 130.186 347.293ZM427.898 270.898C392.749 278.482 358.763 284.323 325.892 289.973C275.456 298.637 227.8 306.832 189.195 319.509C146.483 333.533 118.735 351.721 101.879 376.746C80.9104 407.876 76.7444 450.737 89.1202 507.784C110.758 607.438 169.875 692.761 255.579 748.036C341.283 803.312 443.313 821.917 542.878 800.431C594.068 789.444 642.412 767.967 684.867 737.353C804.101 651.327 867.804 499.769 834.616 346.921C822.226 289.869 800.648 252.559 768.641 232.864C742.912 217.026 710.107 211.906 665.396 216.746C624.988 221.12 578.218 233.319 528.685 246.211C496.413 254.619 463.045 263.312 427.898 270.898Z" fill="url(#paint0_linear_18_124)"/>
<path d="M139.107 352.494C153.779 341.908 172.377 333.141 195.633 325.717C232.277 314.024 277.515 306.659 325.407 298.863C359.941 293.239 395.644 287.415 432.696 279.429C472.437 270.86 509.616 260.44 545.544 250.355C590.83 237.654 633.595 225.662 670.496 221.013C711.348 215.871 741.435 220.121 765.146 234.414C780.016 243.378 792.209 256.148 802.423 273.447C813.175 291.662 821.393 314.306 827.561 342.694C838.242 391.887 838.974 441.682 829.749 490.707C811.736 586.05 757.358 670.585 678.114 726.437C637.356 755.126 591.769 775.049 542.619 785.655C494.273 796.089 445.464 797.202 397.503 788.973C443.902 796.707 492.913 795.863 542.512 785.161C592.444 774.444 639.599 753.495 681.008 723.631C797.309 639.722 859.438 491.885 827.067 342.8C815.217 288.239 794.88 252.928 764.893 234.858C741.284 220.626 711.313 216.39 670.568 221.526C633.695 226.162 590.933 238.158 545.69 250.851C509.745 260.929 472.579 271.351 432.812 279.932C395.752 287.931 360.035 293.747 325.497 299.37C277.623 307.165 232.405 314.527 195.794 326.21C155.307 339.132 128.99 356.124 112.952 379.703C92.8235 409.304 88.8497 450.457 100.793 505.515C113.268 562.963 138.06 614.026 171.847 656.638C167.601 651.333 163.51 645.916 159.574 640.387C130.913 600.11 110.977 554.779 100.299 505.621C94.0841 476.998 92.1758 452.705 94.4672 431.374C96.643 411.099 102.55 394.112 112.524 379.445C119.405 369.298 128.163 360.39 139.107 352.494Z" fill="url(#paint1_linear_18_124)"/>
<path d="M148.11 357.565C162.142 347.441 180.003 339.146 202.43 332.223C237.161 321.496 280.065 314.944 325.49 308.008C361.536 302.504 398.808 296.814 437.602 288.442C481.367 278.998 523.426 266.204 560.539 254.917C601.919 242.329 641.004 230.441 674.679 225.482C711.95 219.987 739.449 223.391 761.22 236.193C775.161 244.392 786.612 256.319 796.224 272.66C806.345 289.862 814.123 311.425 820.024 338.568C830.439 386.525 831.155 435.073 822.16 482.86C804.598 575.811 751.582 658.223 674.323 712.67C634.598 740.629 590.165 760.049 542.253 770.385C494.131 780.769 445.709 782.014 398.322 774.088C352.152 766.371 308.838 750.284 269.584 726.287C188.381 676.644 132.403 597.455 111.959 503.313C105.963 475.701 104.112 452.331 106.287 431.873C108.366 412.44 114.025 396.216 123.6 382.283C129.989 372.989 138.071 364.808 148.11 357.565ZM677.142 709.904C790.509 628.111 851.074 484.003 819.518 338.679C808.197 286.526 789.038 253.153 760.959 236.643C739.293 223.904 711.904 220.517 674.756 225.987C641.116 230.943 602.047 242.827 560.685 255.409C523.568 266.7 481.495 279.496 437.708 288.945C398.898 297.321 361.619 303.012 325.567 308.517C280.162 315.45 237.273 321.998 202.579 332.713C164.227 344.558 139.268 360.399 124.03 382.568C104.721 410.665 100.936 450.125 112.461 503.202C132.868 597.195 188.768 676.271 269.847 725.839C349.99 774.835 446.692 790.473 542.138 769.875C590.81 759.43 636.776 739.011 677.142 709.904Z" fill="url(#paint2_linear_18_124)"/>
<path d="M157.196 362.493C170.615 352.812 187.776 344.984 209.418 338.549C242.319 328.769 282.983 323.019 326.038 316.93C363.446 311.639 402.127 306.17 442.514 297.451C489.747 287.264 534.372 272.448 573.778 259.352C611.583 246.796 647.292 234.938 678.024 229.643C712.02 223.795 737.155 226.373 757.146 237.788C770.199 245.242 780.937 256.357 789.976 271.769C799.489 287.994 806.853 308.492 812.488 334.445C822.632 381.163 823.333 428.459 814.566 475.013C797.459 565.559 745.818 645.841 670.56 698.884C631.854 726.126 588.561 745.048 541.881 755.112C496.771 764.847 451.545 766.652 407.358 760.489C450.138 766.236 495.456 764.585 541.767 754.593C589.178 744.415 633.953 724.523 673.273 696.168C783.704 616.493 842.695 476.117 811.963 334.551C801.148 284.742 783.132 253.238 756.877 238.247C736.999 226.896 711.966 224.324 678.107 230.167C647.411 235.461 611.719 247.311 573.931 259.858C534.535 272.943 489.885 287.77 442.615 297.969C402.217 306.687 363.524 312.162 326.109 317.451C283.073 323.537 242.427 329.286 209.567 339.055C173.258 349.848 149.609 364.568 135.137 385.377C116.627 411.99 113.025 449.782 124.138 500.908C139.56 571.931 174.965 631.704 223.752 676.218C207.401 661.422 192.615 644.98 179.63 627.154C152.576 590.04 133.731 547.601 123.615 501.02C117.843 474.411 116.035 451.944 118.122 432.36C120.099 413.748 125.525 398.282 134.719 385.066C140.607 376.588 148.028 369.108 157.196 362.493Z" fill="url(#paint3_linear_18_124)"/>
<path d="M166.369 367.282C179.196 358.027 195.693 350.653 216.597 344.705C247.737 335.844 286.256 330.879 327.024 325.63C363.852 320.88 405.592 315.501 447.403 306.476C497.64 295.635 544.275 278.643 585.419 263.649C619.945 251.067 652.553 239.185 680.601 233.534C711.595 227.289 734.579 229.098 752.929 239.231C765.133 245.964 775.194 256.29 783.68 270.797C792.612 286.066 799.57 305.535 804.95 330.319C814.827 375.799 815.507 421.84 806.975 467.163C790.321 555.311 740.047 633.466 666.782 685.104C629.101 711.626 586.953 730.046 541.516 739.849C495.633 749.753 449.806 751.572 405.307 745.266C361.478 739.046 320.607 725.197 283.846 704.117C246.467 682.678 214.783 654.569 189.648 620.549C163.4 585.017 145.104 544.032 135.267 498.732C129.706 473.119 127.965 451.559 129.943 432.824C131.826 415.027 137.018 400.301 145.822 387.807C151.258 380.093 158.039 373.291 166.369 367.282ZM669.415 682.446C776.913 604.887 834.341 468.239 804.419 330.437C794.098 282.91 777.174 253.229 752.675 239.702C734.445 229.636 711.58 227.842 680.727 234.056C652.721 239.692 620.132 251.574 585.626 264.149C544.467 279.147 497.813 296.149 447.534 306.994C405.703 316.022 363.95 321.404 327.103 326.159C286.348 331.415 247.85 336.379 216.748 345.224C195.909 351.154 179.466 358.505 166.69 367.722C158.41 373.696 151.671 380.452 146.268 388.12C128.543 413.278 125.12 449.42 135.8 498.613C174.612 677.358 348.983 780.84 541.402 739.319C587.553 729.411 631.139 710.047 669.415 682.446Z" fill="url(#paint4_linear_18_124)"/>
<path d="M175.63 371.92C187.893 363.072 203.747 356.146 223.954 350.683C253.41 342.72 289.865 338.523 328.459 334.08C366.319 329.722 409.231 324.782 452.317 315.484C505.119 304.089 553.228 284.771 595.68 267.714C628.555 254.512 656.944 243.112 682.519 237.104C710.773 230.467 731.773 231.541 748.606 240.486C759.986 246.532 769.384 256.1 777.342 269.74C785.713 284.087 792.278 302.552 797.413 326.19C807.024 370.442 807.693 415.239 799.385 459.317C783.182 545.064 734.272 621.089 662.998 671.314C626.343 697.114 585.345 715.034 541.142 724.573C451.571 743.907 362.728 732.709 290.978 693.031C254.686 672.964 223.967 646.355 199.68 613.947C174.237 580.001 156.481 540.463 146.924 496.445C141.575 471.814 139.893 451.143 141.773 433.254C143.57 416.267 148.53 402.265 156.959 390.475C161.939 383.498 168.117 377.34 175.63 371.92ZM452.44 316.038C409.329 325.343 366.407 330.289 328.53 334.645C289.962 339.081 253.522 343.278 224.104 351.233C191.631 360.009 170.441 372.585 157.418 390.801C140.459 414.529 137.206 449.047 147.475 496.331C166.048 581.863 217.109 651.55 291.252 692.549C362.88 732.155 451.579 743.345 541.031 724.037C585.923 714.402 628.319 695.567 665.549 668.719C770.117 593.282 825.975 460.355 796.868 326.314C787.035 281.019 771.164 253.108 748.356 240.983C711.943 221.636 660.728 242.19 595.9 268.236C553.423 285.295 505.286 304.625 452.44 316.027L452.44 316.038Z" fill="url(#paint5_linear_18_124)"/>
<path d="M184.977 376.414C196.686 367.966 211.918 361.459 231.469 356.495C259.313 349.403 293.792 345.956 330.293 342.309C369.058 338.434 412.998 334.046 457.211 324.506C512.19 312.638 561.318 290.825 604.66 271.58C663.853 245.311 710.579 224.548 744.173 241.615C754.765 246.992 763.525 255.836 770.972 268.628C778.809 282.075 784.984 299.565 789.871 322.078C799.229 365.071 799.863 408.615 791.796 451.47C776.05 534.822 728.511 608.724 659.231 657.549C623.6 682.628 583.751 700.052 540.783 709.318C501.412 717.811 462.317 720.53 424.966 717.629C461.508 720.247 500.366 717.452 540.658 708.757C584.291 699.392 625.498 681.085 661.685 654.99C763.316 581.664 817.6 452.463 789.319 322.193C779.96 279.085 765.109 252.893 743.922 242.121C710.593 225.162 663.948 245.878 604.902 272.097C561.532 291.35 512.38 313.181 457.339 325.056C413.097 334.602 369.142 339.001 330.347 342.88C293.867 346.526 259.414 349.973 231.605 357.05C212.139 362.009 196.96 368.474 185.308 376.877C178.876 381.455 173.221 387.036 168.559 393.407C152.351 415.722 149.264 448.64 159.117 494.04C174.655 565.596 212.315 622.7 265.097 661.414C244.073 646.212 225.4 627.994 209.68 607.349C185.035 574.979 167.834 536.897 158.553 494.163C153.415 470.5 151.789 450.708 153.579 433.655C155.279 417.45 160.023 404.176 168.086 393.072C172.789 386.65 178.491 381.026 184.977 376.414Z" fill="url(#paint6_linear_18_124)"/>
<path d="M194.433 380.732C205.609 372.668 220.264 366.608 239.177 362.112C265.478 355.864 298.059 353.152 332.551 350.282C372.106 346.991 416.94 343.257 462.133 333.504C518.928 321.248 568.644 296.766 612.508 275.168C666.368 248.637 708.92 227.691 739.657 242.572C749.479 247.32 757.634 255.454 764.582 267.432C771.886 280.016 777.696 296.54 782.345 317.948C791.414 359.718 792.039 401.999 784.208 443.626C768.895 524.571 722.728 596.34 655.459 643.776C620.852 668.135 582.147 685.051 540.418 694.054C497.794 703.254 455.867 705.94 415.798 702.037C375.455 698.111 338.267 687.62 305.247 670.867C271.125 653.554 242.349 629.947 219.73 600.737C195.888 569.946 179.235 533.315 170.236 491.865C165.309 469.167 163.731 450.232 165.433 434.009C167.047 418.584 171.575 406.018 179.278 395.596C183.525 389.881 188.638 384.866 194.433 380.732ZM462.25 334.084C417.021 343.845 372.168 347.578 332.593 350.872C298.117 353.745 265.561 356.45 239.305 362.688C210.337 369.575 191.425 380.13 179.757 395.938C164.282 416.876 161.364 448.208 170.818 491.736C188.405 572.786 234.983 634.548 305.507 670.339C371.303 703.733 454.683 711.95 540.287 693.476C582.661 684.381 622.679 666.603 657.821 641.261C756.517 570.053 809.243 444.591 781.77 318.071C772.876 277.113 759.018 252.591 739.403 243.098C708.915 228.352 666.486 249.25 612.753 275.69C568.868 297.314 519.117 321.815 462.25 334.084Z" fill="url(#paint7_linear_18_124)"/>
<path d="M203.978 384.896C214.637 377.205 228.721 371.572 247.019 367.569C271.825 362.149 302.603 360.143 335.172 358.029C375.403 355.416 421.001 352.458 467.03 342.523C525.312 329.946 575.234 302.618 619.279 278.506C668.248 251.697 706.933 230.53 735.047 243.383C744.126 247.536 751.685 254.994 758.156 266.18C764.951 277.925 770.408 293.501 774.809 313.825C783.609 354.354 784.217 395.385 776.613 435.776C761.75 514.321 716.953 583.961 651.68 629.994C618.098 653.628 580.54 670.046 540.046 678.781C498.469 687.752 457.842 690.726 419.288 687.62C380.089 684.463 344.124 675.093 312.375 659.776C244.027 626.805 198.903 567.947 181.883 489.566C177.161 467.819 175.648 449.749 177.257 434.328C178.783 419.669 183.104 407.798 190.451 398.04C194.27 393 198.831 388.568 203.978 384.896ZM653.958 627.532C749.719 558.441 800.885 436.719 774.221 313.95C769.824 293.698 764.398 278.171 757.637 266.48C751.232 255.41 743.759 248.029 734.797 243.93C706.959 231.191 668.391 252.304 619.569 279.032C598.449 290.594 574.517 303.692 549.101 315.193C519.968 328.366 493.166 337.5 467.156 343.112C421.085 353.055 375.463 356.016 335.213 358.628C302.665 360.741 271.923 362.74 247.147 368.156C228.933 372.14 214.912 377.751 204.331 385.385C199.233 389.025 194.717 393.417 190.936 398.412C176.192 417.985 173.426 447.765 182.475 489.445C199.455 567.637 244.466 626.353 312.641 659.241C375.448 689.542 456.165 696.274 539.92 678.199C581.034 669.373 619.861 652.122 653.958 627.532Z" fill="url(#paint8_linear_18_124)"/>
<path d="M213.622 388.891C223.776 381.565 237.306 376.354 255.009 372.854C278.412 368.219 307.438 366.917 338.166 365.534C378.961 363.702 425.199 361.626 471.924 351.545C531.39 338.711 583.34 307.025 625.083 281.562C669.543 254.443 704.661 233.02 730.341 244.051C738.705 247.641 745.683 254.46 751.706 264.875C758.005 275.808 763.092 290.478 767.272 309.71C775.805 349.001 776.393 388.779 769.028 427.93C754.621 504.074 711.195 571.587 647.917 616.214C615.36 639.128 578.961 655.034 539.692 663.513C499.135 672.264 459.808 675.525 422.799 673.206C384.747 670.822 350.007 662.587 319.524 648.693C287.576 634.141 260.751 613.558 239.79 587.519C217.553 559.893 201.998 526.165 193.551 487.274C189.035 466.469 187.578 449.248 189.099 434.623C190.547 420.72 194.653 409.534 201.657 400.427C205.061 396.018 209.092 392.131 213.622 388.891ZM650.091 613.805C742.92 546.83 792.512 428.825 766.671 309.829C762.51 290.659 757.439 276.052 751.172 265.174C745.24 254.884 738.346 248.146 730.109 244.607C704.715 233.706 669.722 255.053 625.412 282.08C604.435 294.875 580.675 309.369 555.112 322.03C525.754 336.565 498.591 346.415 472.065 352.138C425.278 362.242 379.031 364.306 338.215 366.145C307.51 367.523 278.506 368.824 255.147 373.454C229.423 378.563 212.571 387.244 202.152 400.798C188.123 419.046 185.509 447.289 194.162 487.144C225.703 632.389 361.283 701.383 539.57 662.91C579.416 654.354 617.046 637.635 650.091 613.805Z" fill="url(#paint9_linear_18_124)"/>
<path d="M223.366 392.71C233.025 385.742 246.018 380.955 263.161 377.945C285.21 374.07 312.571 373.443 341.539 372.777C382.796 371.829 429.556 370.756 476.84 360.551C537.204 347.525 588.663 312.475 630.013 284.312C670.32 256.859 702.157 235.178 725.576 244.549C733.242 247.611 739.668 253.809 745.221 263.506C751.049 273.651 755.786 287.418 759.73 305.58C767.994 343.638 768.556 382.15 761.418 420.086C747.466 493.831 705.41 559.217 644.128 602.439C612.598 624.631 577.332 640.044 539.31 648.247C499.735 656.787 461.71 660.338 426.291 658.807C389.368 657.202 355.845 650.074 326.653 637.62C295.788 624.454 269.934 605.378 249.811 580.924C228.377 554.881 213.367 522.606 205.21 484.99C200.894 465.12 199.496 448.734 200.931 434.896C202.296 421.735 206.199 411.22 212.86 402.753C215.874 398.929 219.411 395.549 223.366 392.71ZM646.228 600.076C736.123 535.217 784.146 420.945 759.122 305.708C755.199 287.617 750.47 273.908 744.687 263.82C739.207 254.261 732.882 248.151 725.347 245.136C702.237 235.89 670.525 257.489 630.373 284.836C588.977 313.029 537.469 348.13 476.974 361.171C429.632 371.388 382.839 372.463 341.556 373.411C312.612 374.078 285.273 374.705 263.271 378.568C246.226 381.564 233.316 386.316 223.734 393.23C219.821 396.03 216.322 399.367 213.339 403.143C200.011 420.089 197.55 446.817 205.809 484.86C221.552 557.336 263.419 609.963 326.894 637.039C384.348 661.534 457.748 665.206 539.165 647.642C577.764 639.358 614.217 623.162 646.228 600.076Z" fill="url(#paint10_linear_18_124)"/>
<path d="M233.208 396.354C242.386 389.733 254.85 385.365 271.442 382.858C292.199 379.724 316.798 379.756 345.252 379.774C386.87 379.814 434.043 379.859 481.744 369.565C542.736 356.408 593.408 317.79 634.114 286.766C670.583 258.96 699.399 237.011 720.723 244.893C727.721 247.48 733.612 253.101 738.72 262.084C744.074 271.48 748.48 284.358 752.204 301.449C760.201 338.27 760.75 375.539 753.843 412.229C740.341 483.581 699.643 546.843 640.345 588.655C609.841 610.126 575.724 625.038 538.94 632.976C500.294 641.321 463.569 645.159 429.782 644.385C393.979 643.568 361.68 637.559 333.784 626.528C304.008 614.762 279.12 597.185 259.831 574.311C239.199 549.85 224.737 519.024 216.851 482.692C212.738 463.748 211.395 448.189 212.742 435.128C214.026 422.698 217.731 412.848 224.052 404.996C226.701 401.716 229.781 398.809 233.208 396.354ZM481.878 370.19C434.116 380.493 386.891 380.441 345.251 380.414C289.109 380.362 244.763 380.322 224.544 405.4C211.909 421.076 209.596 446.315 217.463 482.564C232.8 553.185 272.011 601.422 334.01 625.936C388.182 647.355 458.996 649.578 538.795 632.356C576.13 624.344 611.389 608.68 642.352 586.351C729.312 523.611 775.773 413.062 751.561 301.592C747.853 284.564 743.478 271.738 738.158 262.4C733.119 253.561 727.34 248.032 720.489 245.499C699.498 237.743 670.813 259.605 634.491 287.283C593.746 318.342 543.026 357.006 481.879 370.193L481.878 370.19Z" fill="url(#paint11_linear_18_124)"/>
<path d="M243.2 399.782C264.751 384.232 302.72 385.261 349.302 386.52C391.186 387.65 438.654 388.927 486.65 378.582C548.056 365.332 597.615 322.959 637.448 288.911C650.554 277.71 662.569 267.443 673.503 259.554C690.046 247.618 704.118 241.127 715.786 245.075C728.694 249.439 737.873 266.043 744.666 297.328C752.392 332.909 752.925 368.927 746.25 404.382C733.204 473.336 693.877 534.473 636.573 574.883C607.096 595.631 574.124 610.042 538.575 617.713C500.778 625.87 465.352 629.993 433.28 629.974C398.58 629.952 367.511 625.062 340.922 615.445C281.083 593.801 243.26 548.366 228.503 480.404C224.589 462.378 223.304 447.633 224.575 435.329C225.786 423.62 229.283 414.402 235.273 407.167C237.591 404.378 240.255 401.897 243.2 399.782ZM584.652 332.316C555.955 353.02 523.491 371.298 486.788 379.219C438.723 389.591 391.206 388.308 349.286 387.175C302.829 385.919 264.956 384.899 243.584 400.319C240.68 402.397 238.055 404.84 235.776 407.589C223.818 422.029 221.655 445.796 229.14 480.269C243.846 547.995 281.528 593.27 341.143 614.831C392.626 633.464 459.015 634.21 538.429 617.071C574.505 609.328 608.574 594.193 638.494 572.619C722.522 511.993 767.411 405.179 744.022 297.464C740.553 281.485 736.497 269.531 731.625 260.919C727.016 252.768 721.774 247.781 715.571 245.692C696.539 239.25 670.653 261.394 637.876 289.421C621.774 303.178 604.077 318.301 584.652 332.316Z" fill="url(#paint12_linear_18_124)"/>
<path d="M253.239 403.074C273.368 388.551 309.38 390.547 353.675 393C395.736 395.332 443.412 397.973 491.549 387.585C553.105 374.309 601.324 327.971 640.055 290.736C654.97 276.403 668.315 263.581 680.127 255.059C691.817 246.625 702.005 242.401 710.745 245.076C722.38 248.637 730.762 263.929 737.116 293.2C747.95 343.213 743.835 395.287 725.283 442.926C706.731 490.566 674.564 531.663 632.792 561.094C604.349 581.114 572.516 595.03 538.206 602.438C501.14 610.445 467.025 614.851 436.778 615.562C403.17 616.345 373.323 612.576 348.063 604.361C320.446 595.381 297.514 580.821 279.883 561.103C260.857 539.809 247.492 511.887 240.149 478.118C236.429 461.001 235.204 447.068 236.392 435.508C237.523 424.5 240.827 415.918 246.49 409.273C248.482 406.943 250.748 404.861 253.239 403.074ZM491.694 388.247C443.465 398.656 395.747 396.008 353.643 393.674C304.04 390.921 264.859 388.75 247.016 409.708C235.743 422.937 233.716 445.269 240.817 477.979C254.897 542.816 291.05 585.126 348.274 603.734C396.136 619.297 459.995 618.646 538.068 601.798C572.884 594.326 605.764 579.718 634.638 558.896C715.73 500.388 759.052 397.304 736.482 293.351C733.237 278.417 729.507 267.308 725.07 259.391C720.873 251.898 716.131 247.429 710.571 245.729C693.372 240.463 670.056 262.867 640.539 291.231C621.406 309.616 599.722 330.454 575.001 348.465C546.373 369.31 519.12 382.327 491.694 388.247Z" fill="url(#paint13_linear_18_124)"/>
<path d="M263.378 406.174C282.141 392.637 316.272 395.587 358.373 399.227C400.475 402.867 448.295 406.999 496.457 396.605C557.951 383.336 606.543 330.688 642.026 292.247C655.611 277.525 667.353 264.806 677.868 256.083C689.474 246.454 698.3 242.9 705.638 244.909C716.058 247.762 723.665 261.79 729.592 289.079C736.615 321.285 737.223 354.549 731.384 386.969C725.544 419.388 713.371 450.327 695.561 478.015C677.751 505.703 654.653 529.596 627.589 548.327C600.525 567.058 570.027 580.26 537.838 587.177C500.809 595.168 468.899 599.74 440.28 601.152C407.28 602.777 379.453 600.206 355.207 593.282C342.221 589.575 330.253 584.54 319.626 578.324C308.603 571.892 298.591 563.864 289.914 554.5C280.963 544.819 273.254 533.446 267.015 520.695C260.533 507.472 255.422 492.372 251.827 475.815C248.306 459.605 247.134 446.463 248.243 435.636C249.3 425.32 252.409 417.354 257.746 411.28C259.426 409.372 261.315 407.659 263.378 406.174ZM566.434 364.442C542.83 381.472 519.868 392.255 496.595 397.271C448.329 407.688 400.503 403.552 358.309 399.908C311.747 395.886 274.969 392.704 258.238 411.74C252.997 417.703 249.942 425.544 248.902 435.717C247.801 446.468 248.969 459.541 252.474 475.677C266.105 538.507 299.777 576.752 355.384 592.623C399.997 605.352 459.616 603.347 537.687 586.512C571.243 579.309 602.933 565.229 630.762 545.16C708.921 488.769 750.676 389.416 728.921 289.223C725.909 275.332 722.482 265.035 718.465 257.783C714.663 250.921 710.408 246.926 705.451 245.571C689.948 241.327 669.023 264.008 642.521 292.711C624.1 312.667 603.231 335.256 579.039 354.802C574.818 358.214 570.616 361.427 566.434 364.442Z" fill="url(#paint14_linear_18_124)"/>
<path d="M273.623 409.079C291.069 396.492 323.393 400.376 363.371 405.182C403.441 409.996 453.307 415.988 501.363 405.618C562.585 392.406 609.267 335.197 643.354 293.426C655.528 278.504 666.042 265.62 675.457 256.676C685.861 246.801 693.782 242.954 700.414 244.554C709.68 246.79 716.558 259.626 722.059 284.954C728.817 315.955 729.403 347.975 723.781 379.182C718.16 410.389 706.442 440.17 689.298 466.822C672.154 493.474 649.921 516.474 623.87 534.505C597.82 552.536 568.463 565.246 537.479 571.906C500.158 579.958 470.389 584.67 443.786 586.731C411.839 589.206 385.202 587.72 362.354 582.192C308.887 569.25 276.544 533.706 263.474 473.524C260.15 458.214 259.034 445.857 260.064 435.748C261.045 426.108 263.96 418.741 268.976 413.224C270.376 411.684 271.934 410.295 273.623 409.079ZM501.509 406.301C480.058 410.943 456.562 412.75 429.741 411.837C406.348 411.048 383.472 408.298 363.289 405.876C319.623 400.626 285.134 396.481 269.482 413.699C264.575 419.107 261.715 426.338 260.75 435.825C259.728 445.858 260.84 458.146 264.149 473.385C277.153 533.278 309.328 568.647 362.51 581.519C415.625 594.38 483.832 582.771 537.323 571.23C600.135 557.667 653.877 520.447 688.641 466.404C723.406 412.361 735.029 347.973 721.394 285.102C718.596 272.214 715.475 262.731 711.861 256.114C708.454 249.841 704.65 246.295 700.279 245.23C686.349 241.869 667.625 264.815 643.92 293.865C626.319 315.437 606.368 339.889 582.8 361.021C555.356 385.607 528.777 400.417 501.509 406.301Z" fill="url(#paint15_linear_18_124)"/>
<path d="M283.97 411.79C300.158 400.111 330.732 404.914 368.665 410.866C408.656 417.131 458.447 424.952 506.265 414.634C567.025 401.521 611.568 339.533 644.091 294.272C654.952 279.159 664.332 266.103 672.739 256.96C682.004 246.872 689.107 242.756 695.09 244.002C703.274 245.711 709.454 257.414 714.537 280.824C721.034 310.624 721.596 341.402 716.192 371.4C710.788 401.397 699.523 430.023 683.043 455.642C666.563 481.26 645.19 503.367 620.148 520.698C595.106 538.029 566.886 550.243 537.103 556.643C481.599 568.62 418.301 580.602 369.484 571.104C344.76 566.299 325.293 556.546 309.965 541.285C301.792 533.153 294.753 523.303 289.057 512.002C283.13 500.251 278.438 486.533 275.116 471.229C271.984 456.808 270.923 445.226 271.879 435.831C272.784 426.851 275.508 420.066 280.204 415.083C281.352 413.869 282.613 412.767 283.97 411.79ZM506.415 415.329C458.469 425.675 408.613 417.853 368.557 411.568C327.643 405.151 295.331 400.078 280.72 415.577C276.137 420.442 273.476 427.091 272.583 435.907C271.641 445.235 272.699 456.744 275.815 471.091C288.196 528.053 318.871 560.551 369.618 570.41C418.3 579.882 481.52 567.911 536.953 555.948C567.989 549.286 597.299 536.264 623.039 517.703C695.331 465.545 733.95 373.651 713.829 280.98C708.88 258.194 702.7 246.327 694.931 244.703C682.458 242.095 665.786 265.301 644.669 294.685C612.08 340.042 567.443 402.153 506.418 415.327L506.415 415.329Z" fill="url(#paint16_linear_18_124)"/>
<path d="M294.426 414.3C309.387 403.506 338.286 409.181 374.254 416.271C414.115 424.124 463.717 433.885 511.171 423.647C571.28 410.675 613.471 343.685 644.275 294.775C658.851 271.635 670.419 253.269 680.164 246.234C683.512 243.819 686.647 242.741 689.614 243.267C696.789 244.543 702.305 255.171 706.977 276.693C713.21 305.287 713.749 334.82 708.564 363.604C703.379 392.388 692.57 419.857 676.758 444.439C660.945 469.021 640.438 490.235 616.41 506.866C592.381 523.497 565.304 535.219 536.726 541.362C477.238 554.201 421.051 566.327 376.632 560.018C353.003 556.664 334.477 548.376 319.991 534.682C303.948 519.512 293.08 498.008 286.768 468.934C283.829 455.397 282.825 444.582 283.693 435.867C284.529 427.534 287.061 421.31 291.432 416.834C292.355 415.905 293.357 415.058 294.426 414.3ZM511.318 424.341C463.717 434.613 414.032 424.83 374.105 416.969C335.807 409.43 305.553 403.474 291.96 417.349C287.701 421.696 285.233 427.777 284.419 435.937C283.562 444.569 284.555 455.318 287.477 468.781C299.379 523.579 327.739 552.342 376.736 559.3C421.031 565.602 477.159 553.492 536.575 540.672C594.489 528.173 644.038 493.851 676.086 444.024C708.134 394.197 718.86 334.832 706.28 276.859C701.736 255.933 696.242 245.181 689.489 243.982C678.368 242.008 663.592 265.465 644.887 295.163C614.013 344.184 571.733 411.319 511.318 424.341Z" fill="url(#paint17_linear_18_124)"/>
<path d="M304.974 416.608C318.775 406.651 346.064 413.211 380.113 421.398C419.764 430.931 469.113 442.795 516.074 432.659C542.293 427.001 566.979 409.273 591.541 378.456C612.56 352.084 629.952 320.4 643.919 294.949C657.438 270.319 668.015 251.039 676.953 244.591C679.42 242.81 681.761 242.007 684.006 242.338C690.257 243.248 695.151 252.864 699.434 272.586C705.407 299.976 705.925 328.267 700.959 355.839C695.994 383.412 685.641 409.725 670.493 433.273C655.346 456.821 635.702 477.142 612.684 493.072C589.667 509.003 563.728 520.23 536.352 526.113C528.092 527.896 519.836 529.728 511.855 531.5C476.774 539.292 443.637 546.65 414.35 548.843C381.564 551.296 357.754 546.967 339.417 535.219C319.008 522.144 305.598 499.717 298.418 466.66C295.668 453.999 294.703 443.936 295.506 435.884C296.266 428.182 298.61 422.504 302.676 418.525C303.392 417.828 304.16 417.188 304.974 416.608ZM516.228 433.384C469.111 443.547 419.665 431.667 379.941 422.116C344.122 413.507 315.831 406.705 303.205 419.062C299.271 422.913 296.996 428.443 296.254 435.965C295.468 443.932 296.415 453.923 299.149 466.505C306.281 499.362 319.581 521.626 339.822 534.601C358.018 546.258 381.684 550.548 414.303 548.111C443.54 545.921 476.65 538.567 511.708 530.78C519.69 529.008 527.945 527.176 536.206 525.393C591.674 513.422 639.123 480.552 669.82 432.832C700.517 385.112 710.781 328.25 698.731 272.738C694.58 253.624 689.735 243.916 683.924 243.073C674.052 241.625 661.049 265.316 644.584 295.307C630.596 320.791 613.186 352.502 592.127 378.927C567.446 409.869 542.623 427.686 516.228 433.384Z" fill="url(#paint18_linear_18_124)"/>
</g>
<defs>
<linearGradient id="paint0_linear_18_124" x1="799.204" y1="260.105" x2="188.365" y2="700.819" gradientUnits="userSpaceOnUse">
<stop offset="0.15" stop-color="#FFB66C"/>
<stop offset="0.39" stop-color="#FF6096"/>
<stop offset="0.42" stop-color="#F757A0"/>
<stop offset="0.48" stop-color="#E03FBC"/>
<stop offset="0.56" stop-color="#BC18E9"/>
<stop offset="0.6" stop-color="#AA04FF"/>
<stop offset="0.65" stop-color="#9B17FE"/>
<stop offset="0.75" stop-color="#7349FC"/>
<stop offset="0.89" stop-color="#3398F9"/>
<stop offset="1" stop-color="#00D8F7"/>
</linearGradient>
<linearGradient id="paint1_linear_18_124" x1="794.32" y1="261.197" x2="196.953" y2="692.191" gradientUnits="userSpaceOnUse">
<stop offset="0.15" stop-color="#FFB66C"/>
<stop offset="0.39" stop-color="#FF6096"/>
<stop offset="0.42" stop-color="#F757A0"/>
<stop offset="0.48" stop-color="#E03FBC"/>
<stop offset="0.56" stop-color="#BC18E9"/>
<stop offset="0.6" stop-color="#AA04FF"/>
<stop offset="0.65" stop-color="#9B17FE"/>
<stop offset="0.75" stop-color="#7349FC"/>
<stop offset="0.89" stop-color="#3398F9"/>
<stop offset="1" stop-color="#00D8F7"/>
</linearGradient>
<linearGradient id="paint2_linear_18_124" x1="789.427" y1="262.257" x2="205.519" y2="683.542" gradientUnits="userSpaceOnUse">
<stop offset="0.15" stop-color="#FFB66C"/>
<stop offset="0.39" stop-color="#FF6096"/>
<stop offset="0.42" stop-color="#F757A0"/>
<stop offset="0.48" stop-color="#E03FBC"/>
<stop offset="0.56" stop-color="#BC18E9"/>
<stop offset="0.6" stop-color="#AA04FF"/>
<stop offset="0.65" stop-color="#9B17FE"/>
<stop offset="0.75" stop-color="#7349FC"/>
<stop offset="0.89" stop-color="#3398F9"/>
<stop offset="1" stop-color="#00D8F7"/>
</linearGradient>
<linearGradient id="paint3_linear_18_124" x1="784.525" y1="263.284" x2="214.05" y2="674.876" gradientUnits="userSpaceOnUse">
<stop offset="0.15" stop-color="#FFB66C"/>
<stop offset="0.39" stop-color="#FF6096"/>
<stop offset="0.42" stop-color="#F757A0"/>
<stop offset="0.48" stop-color="#E03FBC"/>
<stop offset="0.56" stop-color="#BC18E9"/>
<stop offset="0.6" stop-color="#AA04FF"/>
<stop offset="0.65" stop-color="#9B17FE"/>
<stop offset="0.75" stop-color="#7349FC"/>
<stop offset="0.89" stop-color="#3398F9"/>
<stop offset="1" stop-color="#00D8F7"/>
</linearGradient>
<linearGradient id="paint4_linear_18_124" x1="779.615" y1="264.278" x2="222.556" y2="666.191" gradientUnits="userSpaceOnUse">
<stop offset="0.15" stop-color="#FFB66C"/>
<stop offset="0.39" stop-color="#FF6096"/>
<stop offset="0.42" stop-color="#F757A0"/>
<stop offset="0.48" stop-color="#E03FBC"/>
<stop offset="0.56" stop-color="#BC18E9"/>
<stop offset="0.6" stop-color="#AA04FF"/>
<stop offset="0.65" stop-color="#9B17FE"/>
<stop offset="0.75" stop-color="#7349FC"/>
<stop offset="0.89" stop-color="#3398F9"/>
<stop offset="1" stop-color="#00D8F7"/>
</linearGradient>
<linearGradient id="paint5_linear_18_124" x1="774.7" y1="265.235" x2="231.033" y2="657.486" gradientUnits="userSpaceOnUse">
<stop offset="0.15" stop-color="#FFB66C"/>
<stop offset="0.39" stop-color="#FF6096"/>
<stop offset="0.42" stop-color="#F757A0"/>
<stop offset="0.48" stop-color="#E03FBC"/>
<stop offset="0.56" stop-color="#BC18E9"/>
<stop offset="0.6" stop-color="#AA04FF"/>
<stop offset="0.65" stop-color="#9B17FE"/>
<stop offset="0.75" stop-color="#7349FC"/>
<stop offset="0.89" stop-color="#3398F9"/>
<stop offset="1" stop-color="#00D8F7"/>
</linearGradient>
<linearGradient id="paint6_linear_18_124" x1="769.774" y1="266.156" x2="239.478" y2="648.759" gradientUnits="userSpaceOnUse">
<stop offset="0.15" stop-color="#FFB66C"/>
<stop offset="0.39" stop-color="#FF6096"/>
<stop offset="0.42" stop-color="#F757A0"/>
<stop offset="0.48" stop-color="#E03FBC"/>
<stop offset="0.56" stop-color="#BC18E9"/>
<stop offset="0.6" stop-color="#AA04FF"/>
<stop offset="0.65" stop-color="#9B17FE"/>
<stop offset="0.75" stop-color="#7349FC"/>
<stop offset="0.89" stop-color="#3398F9"/>
<stop offset="1" stop-color="#00D8F7"/>
</linearGradient>
<linearGradient id="paint7_linear_18_124" x1="764.834" y1="267.037" x2="247.889" y2="640.008" gradientUnits="userSpaceOnUse">
<stop offset="0.15" stop-color="#FFB66C"/>
<stop offset="0.39" stop-color="#FF6096"/>
<stop offset="0.42" stop-color="#F757A0"/>
<stop offset="0.48" stop-color="#E03FBC"/>
<stop offset="0.56" stop-color="#BC18E9"/>
<stop offset="0.6" stop-color="#AA04FF"/>
<stop offset="0.65" stop-color="#9B17FE"/>
<stop offset="0.75" stop-color="#7349FC"/>
<stop offset="0.89" stop-color="#3398F9"/>
<stop offset="1" stop-color="#00D8F7"/>
</linearGradient>
<linearGradient id="paint8_linear_18_124" x1="759.888" y1="267.878" x2="256.28" y2="631.227" gradientUnits="userSpaceOnUse">
<stop offset="0.15" stop-color="#FFB66C"/>
<stop offset="0.39" stop-color="#FF6096"/>
<stop offset="0.42" stop-color="#F757A0"/>
<stop offset="0.48" stop-color="#E03FBC"/>
<stop offset="0.56" stop-color="#BC18E9"/>
<stop offset="0.6" stop-color="#AA04FF"/>
<stop offset="0.65" stop-color="#9B17FE"/>
<stop offset="0.75" stop-color="#7349FC"/>
<stop offset="0.89" stop-color="#3398F9"/>
<stop offset="1" stop-color="#00D8F7"/>
</linearGradient>
<linearGradient id="paint9_linear_18_124" x1="754.933" y1="268.681" x2="264.614" y2="622.442" gradientUnits="userSpaceOnUse">
<stop offset="0.15" stop-color="#FFB66C"/>
<stop offset="0.39" stop-color="#FF6096"/>
<stop offset="0.42" stop-color="#F757A0"/>
<stop offset="0.48" stop-color="#E03FBC"/>
<stop offset="0.56" stop-color="#BC18E9"/>
<stop offset="0.6" stop-color="#AA04FF"/>
<stop offset="0.65" stop-color="#9B17FE"/>
<stop offset="0.75" stop-color="#7349FC"/>
<stop offset="0.89" stop-color="#3398F9"/>
<stop offset="1" stop-color="#00D8F7"/>
</linearGradient>
<linearGradient id="paint10_linear_18_124" x1="749.964" y1="269.439" x2="272.92" y2="613.621" gradientUnits="userSpaceOnUse">
<stop offset="0.15" stop-color="#FFB66C"/>
<stop offset="0.39" stop-color="#FF6096"/>
<stop offset="0.42" stop-color="#F757A0"/>
<stop offset="0.48" stop-color="#E03FBC"/>
<stop offset="0.56" stop-color="#BC18E9"/>
<stop offset="0.6" stop-color="#AA04FF"/>
<stop offset="0.65" stop-color="#9B17FE"/>
<stop offset="0.75" stop-color="#7349FC"/>
<stop offset="0.89" stop-color="#3398F9"/>
<stop offset="1" stop-color="#00D8F7"/>
</linearGradient>
<linearGradient id="paint11_linear_18_124" x1="744.986" y1="270.153" x2="281.19" y2="604.778" gradientUnits="userSpaceOnUse">
<stop offset="0.15" stop-color="#FFB66C"/>
<stop offset="0.39" stop-color="#FF6096"/>
<stop offset="0.42" stop-color="#F757A0"/>
<stop offset="0.48" stop-color="#E03FBC"/>
<stop offset="0.56" stop-color="#BC18E9"/>
<stop offset="0.6" stop-color="#AA04FF"/>
<stop offset="0.65" stop-color="#9B17FE"/>
<stop offset="0.75" stop-color="#7349FC"/>
<stop offset="0.89" stop-color="#3398F9"/>
<stop offset="1" stop-color="#00D8F7"/>
</linearGradient>
<linearGradient id="paint12_linear_18_124" x1="740.014" y1="270.804" x2="289.416" y2="595.906" gradientUnits="userSpaceOnUse">
<stop offset="0.15" stop-color="#FFB66C"/>
<stop offset="0.39" stop-color="#FF6096"/>
<stop offset="0.42" stop-color="#F757A0"/>
<stop offset="0.48" stop-color="#E03FBC"/>
<stop offset="0.56" stop-color="#BC18E9"/>
<stop offset="0.6" stop-color="#AA04FF"/>
<stop offset="0.65" stop-color="#9B17FE"/>
<stop offset="0.75" stop-color="#7349FC"/>
<stop offset="0.89" stop-color="#3398F9"/>
<stop offset="1" stop-color="#00D8F7"/>
</linearGradient>
<linearGradient id="paint13_linear_18_124" x1="735.007" y1="271.432" x2="297.611" y2="587.008" gradientUnits="userSpaceOnUse">
<stop offset="0.15" stop-color="#FFB66C"/>
<stop offset="0.39" stop-color="#FF6096"/>
<stop offset="0.42" stop-color="#F757A0"/>
<stop offset="0.48" stop-color="#E03FBC"/>
<stop offset="0.56" stop-color="#BC18E9"/>
<stop offset="0.6" stop-color="#AA04FF"/>
<stop offset="0.65" stop-color="#9B17FE"/>
<stop offset="0.75" stop-color="#7349FC"/>
<stop offset="0.89" stop-color="#3398F9"/>
<stop offset="1" stop-color="#00D8F7"/>
</linearGradient>
<linearGradient id="paint14_linear_18_124" x1="729.991" y1="272.01" x2="305.756" y2="578.091" gradientUnits="userSpaceOnUse">
<stop offset="0.15" stop-color="#FFB66C"/>
<stop offset="0.39" stop-color="#FF6096"/>
<stop offset="0.42" stop-color="#F757A0"/>
<stop offset="0.48" stop-color="#E03FBC"/>
<stop offset="0.56" stop-color="#BC18E9"/>
<stop offset="0.6" stop-color="#AA04FF"/>
<stop offset="0.65" stop-color="#9B17FE"/>
<stop offset="0.75" stop-color="#7349FC"/>
<stop offset="0.89" stop-color="#3398F9"/>
<stop offset="1" stop-color="#00D8F7"/>
</linearGradient>
<linearGradient id="paint15_linear_18_124" x1="724.959" y1="272.536" x2="313.838" y2="569.155" gradientUnits="userSpaceOnUse">
<stop offset="0.15" stop-color="#FFB66C"/>
<stop offset="0.39" stop-color="#FF6096"/>
<stop offset="0.42" stop-color="#F757A0"/>
<stop offset="0.48" stop-color="#E03FBC"/>
<stop offset="0.56" stop-color="#BC18E9"/>
<stop offset="0.6" stop-color="#AA04FF"/>
<stop offset="0.65" stop-color="#9B17FE"/>
<stop offset="0.75" stop-color="#7349FC"/>
<stop offset="0.89" stop-color="#3398F9"/>
<stop offset="1" stop-color="#00D8F7"/>
</linearGradient>
<linearGradient id="paint16_linear_18_124" x1="719.916" y1="273.01" x2="321.912" y2="560.166" gradientUnits="userSpaceOnUse">
<stop offset="0.15" stop-color="#FFB66C"/>
<stop offset="0.39" stop-color="#FF6096"/>
<stop offset="0.42" stop-color="#F757A0"/>
<stop offset="0.48" stop-color="#E03FBC"/>
<stop offset="0.56" stop-color="#BC18E9"/>
<stop offset="0.6" stop-color="#AA04FF"/>
<stop offset="0.65" stop-color="#9B17FE"/>
<stop offset="0.75" stop-color="#7349FC"/>
<stop offset="0.89" stop-color="#3398F9"/>
<stop offset="1" stop-color="#00D8F7"/>
</linearGradient>
<linearGradient id="paint17_linear_18_124" x1="714.856" y1="273.436" x2="329.899" y2="551.179" gradientUnits="userSpaceOnUse">
<stop offset="0.15" stop-color="#FFB66C"/>
<stop offset="0.39" stop-color="#FF6096"/>
<stop offset="0.42" stop-color="#F757A0"/>
<stop offset="0.48" stop-color="#E03FBC"/>
<stop offset="0.56" stop-color="#BC18E9"/>
<stop offset="0.6" stop-color="#AA04FF"/>
<stop offset="0.65" stop-color="#9B17FE"/>
<stop offset="0.75" stop-color="#7349FC"/>
<stop offset="0.89" stop-color="#3398F9"/>
<stop offset="1" stop-color="#00D8F7"/>
</linearGradient>
<linearGradient id="paint18_linear_18_124" x1="709.785" y1="273.804" x2="337.863" y2="542.142" gradientUnits="userSpaceOnUse">
<stop offset="0.15" stop-color="#FFB66C"/>
<stop offset="0.39" stop-color="#FF6096"/>
<stop offset="0.42" stop-color="#F757A0"/>
<stop offset="0.48" stop-color="#E03FBC"/>
<stop offset="0.56" stop-color="#BC18E9"/>
<stop offset="0.6" stop-color="#AA04FF"/>
<stop offset="0.65" stop-color="#9B17FE"/>
<stop offset="0.75" stop-color="#7349FC"/>
<stop offset="0.89" stop-color="#3398F9"/>
<stop offset="1" stop-color="#00D8F7"/>
</linearGradient>
<clipPath id="clip0_18_124">
<rect width="753.228" height="641.473" fill="white" transform="translate(986.867 520.21) rotate(144.19)"/>
</clipPath>
</defs>
</svg>
